<svg width="42" height="35" viewBox="0 0 42 35" fill="none" xmlns="http://www.w3.org/2000/svg">
<path fill-rule="evenodd" clip-rule="evenodd" d="M4.13254 10.6295C-0.509254 13.7503 -0.536624 20.5705 4.07997 23.7284L17.3347 32.7951C20.2161 34.7661 23.9895 34.8849 26.997 33.1285C33.0016 29.6217 32.9727 20.8554 26.8515 17.4844C26.6824 17.3913 26.6834 17.148 26.8532 17.0563C33.0013 13.7344 33.1006 4.96866 27.1243 1.41372C24.131 -0.366821 20.3567 -0.278228 17.4597 1.66952L4.13254 10.6295ZM5.53986 21.5942C2.43176 19.4682 2.45019 14.8764 5.57525 12.7754L18.9024 3.81541C20.9634 2.42975 23.661 2.36227 25.8024 3.63605C30.0825 6.18204 29.9752 12.4303 25.624 14.7813C23.6537 15.8459 23.6423 18.669 25.6041 19.7494C29.9362 22.1352 29.9934 28.3841 25.6929 30.8956C23.5414 32.1522 20.8444 32.063 18.7946 30.6609L5.53986 21.5942Z" fill="white"/>
<path d="M36.3848 21.1872C35.6707 21.1844 35.0896 21.7609 35.0867 22.4749C35.0838 23.189 35.6603 23.7701 36.3744 23.773L39.8221 23.7868C40.5361 23.7897 41.1173 23.2132 41.1201 22.4992C41.123 21.7851 40.5465 21.2039 39.8324 21.2011L36.3848 21.1872Z" fill="white"/>
<path d="M32.9578 16.0019C32.2438 15.999 31.6626 16.5755 31.6598 17.2896C31.6569 18.0036 32.2334 18.5848 32.9475 18.5876L36.3951 18.6015C37.1092 18.6043 37.6903 18.0278 37.6932 17.3138C37.6961 16.5998 37.1196 16.0186 36.4055 16.0157L32.9578 16.0019Z" fill="white"/>
<path d="M36.4263 10.8442C35.7122 10.8413 35.1311 11.4179 35.1282 12.1319C35.1253 12.8459 35.7019 13.4271 36.4159 13.43L39.8636 13.4438C40.5776 13.4467 41.1588 12.8702 41.1617 12.1561C41.1645 11.4421 40.588 10.8609 39.874 10.858L36.4263 10.8442Z" fill="white"/>
</svg>
