<svg width="22" height="24" viewBox="0 0 22 24" fill="none" xmlns="http://www.w3.org/2000/svg">
<path d="M15.5761 9.4801C15.8413 9.16189 15.7983 8.68897 15.4801 8.4238C15.1619 8.15862 14.689 8.20162 14.4238 8.51982L10.9602 12.6761C10.5895 13.121 10.3618 13.3915 10.1742 13.5609C10.0872 13.6394 10.0356 13.6707 10.0108 13.6827C10.0058 13.6851 10.0022 13.6866 9.99997 13.6874C9.99996 13.6874 9.99997 13.6874 9.99997 13.6874C9.9977 13.6866 9.99412 13.6851 9.9891 13.6827C9.96437 13.6707 9.91276 13.6394 9.82577 13.5609C9.63819 13.3915 9.41049 13.121 9.03969 12.6761L7.57614 10.9198C7.31096 10.6016 6.83804 10.5586 6.51983 10.8238C6.20162 11.089 6.15863 11.5619 6.4238 11.8801L7.9193 13.6747C8.24777 14.069 8.54388 14.4244 8.82048 14.6741C9.12142 14.9459 9.50048 15.1879 9.99997 15.1879C10.4995 15.1879 10.8785 14.9459 11.1795 14.6741C11.4561 14.4244 11.7522 14.069 12.0806 13.6747L15.5761 9.4801Z" fill="white"/>
<path fill-rule="evenodd" clip-rule="evenodd" d="M14.5643 2.75658C13.5409 -0.829342 8.45899 -0.829342 7.43562 2.75658C7.1088 3.90174 5.93229 4.581 4.77714 4.29145C1.15995 3.38476 -1.38102 7.78586 1.21279 10.4651C2.04112 11.3207 2.04112 12.6792 1.21279 13.5348C-1.38103 16.2141 1.15995 20.6152 4.77714 19.7085C5.93229 19.4189 7.1088 20.0982 7.43562 21.2433C8.45899 24.8293 13.5409 24.8293 14.5643 21.2433C14.8911 20.0982 16.0676 19.4189 17.2228 19.7085C20.84 20.6152 23.381 16.2141 20.7872 13.5348C19.9588 12.6792 19.9588 11.3207 20.7872 10.4651C23.381 7.78586 20.84 3.38476 17.2228 4.29145C16.0676 4.581 14.8911 3.90174 14.5643 2.75658ZM8.87803 3.16823C9.48727 1.03344 12.5127 1.03344 13.1219 3.16823C13.6709 5.09182 15.6471 6.23281 17.5875 5.74644C19.7409 5.20666 21.2536 7.82674 19.7094 9.42175C18.3181 10.859 18.3181 13.141 19.7094 14.5782C21.2536 16.1732 19.7409 18.7933 17.5875 18.2535C15.6471 17.7671 13.6709 18.9081 13.1219 20.8317C12.5127 22.9665 9.48727 22.9665 8.87803 20.8317C8.32906 18.9081 6.3528 17.7671 4.41243 18.2535C2.25904 18.7933 0.746332 16.1732 2.29049 14.5782C3.68189 13.141 3.68189 10.859 2.29049 9.42175C0.746332 7.82674 2.25904 5.20666 4.41243 5.74644C6.3528 6.23281 8.32906 5.09182 8.87803 3.16823Z" fill="white"/>
</svg>
