<svg width="26" height="33" viewBox="0 0 26 33" fill="none" xmlns="http://www.w3.org/2000/svg">
<path d="M8.22381 10.1267C7.55573 10.1267 7.01414 10.6683 7.01414 11.3364C7.01414 12.0045 7.55573 12.5461 8.22381 12.5461H17.9012C18.5693 12.5461 19.1109 12.0045 19.1109 11.3364C19.1109 10.6683 18.5693 10.1267 17.9012 10.1267H8.22381Z" fill="#2D264B"/>
<path fill-rule="evenodd" clip-rule="evenodd" d="M12.8015 0.449337C10.0494 0.448903 8.37006 0.448639 6.97084 0.903273C4.14743 1.82065 1.93384 4.03424 1.01646 6.85765C0.561829 8.25687 0.562093 9.93623 0.562526 12.6883L0.562553 24.9192C0.562543 26.4188 0.562534 27.6173 0.635231 28.5402C0.706865 29.4496 0.859221 30.3122 1.32092 30.9967C2.24738 32.3701 3.86206 33.1128 5.5078 32.9223C6.32794 32.8275 7.08203 32.3818 7.81912 31.8443C8.56716 31.2989 9.47714 30.5189 10.6157 29.543L10.6573 29.5073C11.7715 28.5523 12.0887 28.3069 12.3908 28.2002C12.8254 28.0466 13.2996 28.0466 13.7342 28.2002C14.0363 28.3069 14.3535 28.5523 15.4677 29.5073L15.5093 29.543C16.6478 30.5189 17.5578 31.2989 18.3059 31.8443C19.043 32.3818 19.7971 32.8275 20.6172 32.9223C22.2629 33.1128 23.8776 32.3701 24.8041 30.9967C25.2658 30.3122 25.4181 29.4496 25.4898 28.5402C25.5625 27.6173 25.5625 26.4188 25.5624 24.9193L25.5625 12.6883C25.5629 9.93624 25.5632 8.25687 25.1085 6.85765C24.1912 4.03424 21.9776 1.82065 19.1542 0.903273C17.7549 0.448639 16.0756 0.448903 13.3235 0.449337H12.8015ZM7.71845 3.20421C8.70508 2.88363 9.96629 2.86871 13.0625 2.86871C16.1587 2.86871 17.4199 2.88363 18.4065 3.20421C20.4934 3.88227 22.1295 5.5184 22.8076 7.60526C23.1282 8.59189 23.1431 9.8531 23.1431 12.9493V24.8644C23.1431 26.4313 23.1422 27.5339 23.0779 28.3502C23.0116 29.1913 22.8882 29.5105 22.7984 29.6437C22.3773 30.268 21.6433 30.6056 20.8953 30.519C20.7357 30.5006 20.413 30.3865 19.7313 29.8894C19.0696 29.407 18.2318 28.6901 17.0422 27.6704L16.8821 27.5331C16.0078 26.7822 15.3259 26.1967 14.5402 25.919C13.584 25.5812 12.541 25.5812 11.5848 25.919C10.7991 26.1967 10.1172 26.7822 9.24286 27.533L9.08284 27.6704C7.89315 28.6901 7.0554 29.407 6.39374 29.8894C5.71204 30.3865 5.38933 30.5006 5.22974 30.519C4.48167 30.6056 3.74773 30.268 3.32661 29.6437C3.23677 29.5105 3.11336 29.1913 3.0471 28.3502C2.9828 27.5339 2.9819 26.4313 2.9819 24.8644V12.9493C2.9819 9.8531 2.99682 8.59189 3.3174 7.60526C3.99546 5.5184 5.63159 3.88227 7.71845 3.20421Z" fill="#2D264B"/>
</svg>
