<svg width="42" height="43" viewBox="0 0 42 43" fill="none" xmlns="http://www.w3.org/2000/svg">
<path d="M3.75 21.5C3.75 14.1568 3.75 10.4852 5.58024 7.91126C6.17134 7.08001 6.88682 6.34898 7.70038 5.74503C10.2195 3.875 13.813 3.875 21 3.875C28.1869 3.875 31.7805 3.875 34.2996 5.74503C35.1132 6.34898 35.8287 7.08001 36.4198 7.91126C38.25 10.4852 38.25 14.1568 38.25 21.5C38.25 28.8432 38.25 32.5148 36.4198 35.0887C35.8287 35.92 35.1132 36.651 34.2996 37.255C31.7805 39.125 28.1869 39.125 21 39.125H3.75V21.5Z" stroke="#8D56C3" strokeWidth="3" stroke-linejoin="round"/>
<path d="M12.8542 25.9062H23.3958" stroke="#8D56C3" strokeWidth="3" strokeLinecap="round"/>
<path d="M12.8542 18.0729H29.1458" stroke="#8D56C3" strokeWidth="3" strokeLinecap="round"/>
</svg>
