<svg width="22" height="22" viewBox="0 0 22 22" fill="none" xmlns="http://www.w3.org/2000/svg">
<path d="M10.25 18C10.25 18.4142 10.5858 18.75 11 18.75C11.4142 18.75 11.75 18.4142 11.75 18H10.25ZM11.75 4C11.75 3.58579 11.4142 3.25 11 3.25C10.5858 3.25 10.25 3.58579 10.25 4H11.75ZM13.4377 7.45175C13.6448 7.81047 14.1035 7.93338 14.4623 7.72627C14.821 7.51916 14.9439 7.06047 14.7368 6.70175L13.4377 7.45175ZM13.7117 6.42625L13.0622 6.80125V6.80125L13.7117 6.42625ZM10.1301 10.68L10.389 9.9761L10.389 9.97609L10.1301 10.68ZM11.8702 11.32L12.1291 10.6161L12.129 10.6161L11.8702 11.32ZM8.28853 15.5738L7.63901 15.9488H7.63902L8.28853 15.5738ZM8.56249 14.5483C8.35538 14.1895 7.89669 14.0666 7.53797 14.2737C7.17925 14.4808 7.05634 14.9395 7.26345 15.2983L8.56249 14.5483ZM12.3279 16.6561L11.9529 16.0066L12.3279 16.6561ZM9.67234 5.34391L10.0473 5.99343L9.67234 5.34391ZM20.25 11C20.25 16.1086 16.1086 20.25 11 20.25V21.75C16.9371 21.75 21.75 16.9371 21.75 11H20.25ZM11 20.25C5.89137 20.25 1.75 16.1086 1.75 11H0.25C0.25 16.9371 5.06294 21.75 11 21.75V20.25ZM1.75 11C1.75 5.89137 5.89137 1.75 11 1.75V0.25C5.06294 0.25 0.25 5.06294 0.25 11H1.75ZM11 1.75C16.1086 1.75 20.25 5.89137 20.25 11H21.75C21.75 5.06294 16.9371 0.25 11 0.25V1.75ZM14.7368 6.70175L14.3612 6.05125L13.0622 6.80125L13.4377 7.45175L14.7368 6.70175ZM8.93805 15.1988L8.56249 14.5483L7.26345 15.2983L7.63901 15.9488L8.93805 15.1988ZM11.6113 12.0239C13.3674 12.6699 13.5734 15.071 11.9529 16.0066L12.7029 17.3056C15.4247 15.7341 15.0788 11.7011 12.1291 10.6161L11.6113 12.0239ZM9.29734 4.6944C6.57547 6.26586 6.92143 10.2989 9.87116 11.3839L10.389 9.97609C8.63281 9.33015 8.42685 6.92902 10.0473 5.99343L9.29734 4.6944ZM11.75 18V17.049H10.25V18H11.75ZM11.75 17.049V11H10.25V17.049H11.75ZM11.9529 16.0066C11.6383 16.1882 11.2996 16.2831 10.9624 16.3L11.0376 17.7981C11.6068 17.7695 12.1776 17.6089 12.7029 17.3056L11.9529 16.0066ZM10.9624 16.3C10.1595 16.3403 9.36599 15.94 8.93805 15.1988L7.63902 15.9488C8.35925 17.1962 9.69453 17.8655 11.0376 17.7981L10.9624 16.3ZM9.87113 11.3839L10.7411 11.7039L11.2589 10.2961L10.389 9.9761L9.87113 11.3839ZM10.7411 11.7039L11.6113 12.0239L12.129 10.6161L11.2589 10.2961L10.7411 11.7039ZM11.75 11L11.75 4.95097H10.25L10.25 11H11.75ZM11.75 4.95097V4H10.25V4.95097H11.75ZM14.3612 6.05125C13.6409 4.80369 12.3055 4.13442 10.9624 4.20192L11.0376 5.70003C11.8406 5.65968 12.6342 6.05999 13.0622 6.80125L14.3612 6.05125ZM10.9624 4.20192C10.3933 4.23052 9.82258 4.39115 9.29734 4.6944L10.0473 5.99343C10.3619 5.81182 10.7005 5.71697 11.0376 5.70003L10.9624 4.20192Z" fill="black"/>
</svg>
