<svg width="25" height="24" viewBox="0 0 25 24" fill="none" xmlns="http://www.w3.org/2000/svg">
<path d="M2.9353 10L11.6962 2.99951C12.4275 2.41516 13.4667 2.41516 14.198 2.99951L22.9589 10" stroke="#C5C5C5" strokeWidth="1.5" strokeLinecap="round" stroke-linejoin="round"/>
<path d="M10.4216 4.04942L6.41687 7.29942C5.68977 7.8895 5.32621 8.18454 5.13185 8.59239C4.9375 9.00024 4.9375 9.46812 4.9375 10.4039V14C4.9375 17.7712 4.9375 19.6569 6.11045 20.8284C7.28341 22 9.17125 22 12.9469 22C16.7226 22 18.6105 22 19.7834 20.8284C20.9564 19.6569 20.9564 17.7712 20.9564 14V10.4039C20.9564 9.46812 20.9564 9.00024 20.762 8.59239C20.5676 8.18454 20.2041 7.8895 19.477 7.29942L15.4723 4.04942C14.2627 3.06776 13.6579 2.57693 12.9469 2.57693C12.236 2.57693 11.6312 3.06776 10.4216 4.04942Z" stroke="#C5C5C5" strokeWidth="1.5"/>
<path d="M10.6943 16.25H15.1996" stroke="#C5C5C5" strokeWidth="1.5" strokeLinecap="round"/>
</svg>
