<svg width="20" height="20" viewBox="0 0 20 20" fill="none" xmlns="http://www.w3.org/2000/svg">
<path fillRule="evenodd" clipRule="evenodd" d="M14.4635 0.373728C13.3214 0.249985 11.8818 0.249992 10.0452 0.25H9.95475C8.11821 0.249992 6.67861 0.249985 5.53648 0.373728C4.37094 0.500006 3.42656 0.762324 2.62024 1.34815C2.13209 1.70281 1.70281 2.13209 1.34815 2.62024C0.762324 3.42656 0.500006 4.37094 0.373728 5.53648C0.249985 6.67861 0.249992 8.11821 0.25 9.95475V10.0452C0.249992 11.8818 0.249985 13.3214 0.373728 14.4635C0.500006 15.6291 0.762324 16.5734 1.34815 17.3798C1.70281 17.8679 2.13209 18.2972 2.62024 18.6518C3.42656 19.2377 4.37094 19.5 5.53648 19.6263C6.67859 19.75 8.11817 19.75 9.95465 19.75H10.0453C11.8818 19.75 13.3214 19.75 14.4635 19.6263C15.6291 19.5 16.5734 19.2377 17.3798 18.6518C17.8679 18.2972 18.2972 17.8679 18.6518 17.3798C19.2377 16.5734 19.5 15.6291 19.6263 14.4635C19.75 13.3214 19.75 11.8818 19.75 10.0453V9.95473C19.75 8.11824 19.75 6.67859 19.6263 5.53648C19.5 4.37094 19.2377 3.42656 18.6518 2.62024C18.2972 2.13209 17.8679 1.70281 17.3798 1.34815C16.5734 0.762324 15.6291 0.500006 14.4635 0.373728ZM3.50191 2.56168C4.00992 2.19259 4.66013 1.97745 5.69804 1.865C6.74999 1.75103 8.10843 1.75 10 1.75C11.8916 1.75 13.25 1.75103 14.302 1.865C15.3399 1.97745 15.9901 2.19259 16.4981 2.56168C16.8589 2.82382 17.1762 3.14111 17.4383 3.50191C17.8074 4.00992 18.0225 4.66013 18.135 5.69804C18.249 6.74999 18.25 8.10843 18.25 10C18.25 11.8916 18.249 13.25 18.135 14.302C18.0225 15.3399 17.8074 15.9901 17.4383 16.4981C17.1762 16.8589 16.8589 17.1762 16.4981 17.4383C15.9901 17.8074 15.3399 18.0225 14.302 18.135C13.25 18.249 11.8916 18.25 10 18.25C8.10843 18.25 6.74999 18.249 5.69804 18.135C4.66013 18.0225 4.00992 17.8074 3.50191 17.4383C3.14111 17.1762 2.82382 16.8589 2.56168 16.4981C2.19259 15.9901 1.97745 15.3399 1.865 14.302C1.75103 13.25 1.75 11.8916 1.75 10C1.75 8.10843 1.75103 6.74999 1.865 5.69804C1.97745 4.66013 2.19259 4.00992 2.56168 3.50191C2.82382 3.14111 3.14111 2.82382 3.50191 2.56168Z" fill="#494949"/>
<path d="M7 10C7 10.5523 6.55228 11 6 11C5.44772 11 5 10.5523 5 10C5 9.44772 5.44772 9 6 9C6.55228 9 7 9.44772 7 10Z" fill="#494949"/>
<path d="M11 10C11 10.5523 10.5523 11 10 11C9.44772 11 9 10.5523 9 10C9 9.44772 9.44772 9 10 9C10.5523 9 11 9.44772 11 10Z" fill="#494949"/>
<path d="M15 10C15 10.5523 14.5523 11 14 11C13.4477 11 13 10.5523 13 10C13 9.44772 13.4477 9 14 9C14.5523 9 15 9.44772 15 10Z" fill="#494949"/>
</svg>
