<svg width="23" height="23" viewBox="0 0 23 23" fill="none" xmlns="http://www.w3.org/2000/svg">
<path d="M16.971 1.75208C17.9784 1.74759 18.6705 1.74564 19.1977 1.80321C19.3691 1.82193 19.5123 1.84604 19.6339 1.87518L9.00543 12.5037C8.71253 12.7965 8.71253 13.2714 9.00543 13.5643C9.29832 13.8572 9.77319 13.8572 10.0661 13.5643L20.6946 2.93585C20.7237 3.05745 20.7478 3.20065 20.7665 3.37199C20.8241 3.89923 20.8221 4.59138 20.8177 5.59875L20.8066 8.08089C20.8047 8.4951 21.139 8.83238 21.5532 8.83423C21.9674 8.83607 22.3047 8.50179 22.3066 8.08758L22.3178 5.56074C22.3221 4.60902 22.3256 3.83119 22.2577 3.20915C22.187 2.56233 22.0314 1.98966 21.6501 1.49688C21.5675 1.3902 21.4785 1.28892 21.3834 1.19358C21.286 1.09581 21.1822 1.0043 21.0729 0.919649C20.5801 0.538287 20.0074 0.382717 19.3606 0.31208C18.7386 0.244151 17.9607 0.247636 17.009 0.251899L14.4822 0.263173C14.0679 0.265021 13.7337 0.602302 13.7355 1.01651C13.7374 1.43072 14.0746 1.76501 14.4888 1.76316L16.971 1.75208Z" fill="#8D56C3"/>
<path d="M12.009 3.44199C11.4034 3.43473 10.7363 3.43473 10.0032 3.43473H9.95475C8.11821 3.43473 6.67861 3.43472 5.53648 3.55846C4.37094 3.68474 3.42656 3.94706 2.62024 4.53289C2.13209 4.88754 1.70281 5.31682 1.34815 5.80497C0.762324 6.61129 0.500006 7.55567 0.373728 8.72121C0.249985 9.86335 0.249992 11.3029 0.25 13.1395V13.23C0.249992 15.0665 0.249985 16.5061 0.373728 17.6483C0.500006 18.8138 0.762324 19.7582 1.34815 20.5645C1.70281 21.0526 2.13209 21.4819 2.62024 21.8366C3.42656 22.4224 4.37094 22.6847 5.53648 22.811C6.67859 22.9347 8.11817 22.9347 9.95465 22.9347H10.0453C11.8818 22.9347 13.3214 22.9347 14.4635 22.811C15.6291 22.6847 16.5734 22.4224 17.3798 21.8366C17.8679 21.4819 18.2972 21.0526 18.6518 20.5645C19.2377 19.7582 19.5 18.8138 19.6263 17.6483C19.75 16.5061 19.75 15.0666 19.75 13.2301V13.1813C19.75 12.4483 19.75 11.7813 19.7427 11.1757C19.7378 10.7616 19.398 10.4298 18.9838 10.4348C18.5696 10.4398 18.2379 10.7795 18.2428 11.1937C18.25 11.7895 18.25 12.448 18.25 13.1847C18.25 15.0763 18.249 16.4347 18.135 17.4867C18.0225 18.5246 17.8074 19.1748 17.4383 19.6828C17.1762 20.0436 16.8589 20.3609 16.4981 20.6231C15.9901 20.9921 15.3399 21.2073 14.302 21.3197C13.25 21.4337 11.8916 21.4347 10 21.4347C8.10843 21.4347 6.74999 21.4337 5.69804 21.3197C4.66013 21.2073 4.00992 20.9921 3.50191 20.6231C3.14111 20.3609 2.82382 20.0436 2.56168 19.6828C2.19259 19.1748 1.97745 18.5246 1.865 17.4867C1.75103 16.4347 1.75 15.0763 1.75 13.1847C1.75 11.2932 1.75103 9.93473 1.865 8.88278C1.97745 7.84487 2.19259 7.19465 2.56168 6.68665C2.82382 6.32584 3.14111 6.00855 3.50191 5.74641C4.00992 5.37733 4.66013 5.16219 5.69804 5.04974C6.74999 4.93576 8.10843 4.93473 10 4.93473C10.7367 4.93473 11.3952 4.93474 11.991 4.94189C12.4052 4.94685 12.745 4.61511 12.7499 4.20093C12.7549 3.78675 12.4232 3.44696 12.009 3.44199Z" fill="#8D56C3"/>
</svg>
