<svg width="20" height="23" viewBox="0 0 20 23" fill="none" xmlns="http://www.w3.org/2000/svg">
<path d="M3.06107 20.5502L3.50191 19.9435L3.06107 20.5502ZM1.95491 19.4441L2.56168 19.0032L1.95491 19.4441ZM18.0451 19.4441L17.4383 19.0032L18.0451 19.4441ZM16.9389 20.5502L17.3798 21.157L16.9389 20.5502ZM16.9389 4.46007L17.3798 3.85331L16.9389 4.46007ZM18.0451 5.56623L17.4383 6.00707L18.0451 5.56623ZM3.06107 4.46007L3.50191 5.06684H3.50191L3.06107 4.46007ZM1.95491 5.56623L2.56168 6.00707L1.95491 5.56623ZM17.2178 15.5667L17.1005 14.8259H17.1005L17.2178 15.5667ZM13.0616 19.723L12.3208 19.6057V19.6057L13.0616 19.723ZM7 12.7552C6.58579 12.7552 6.25 13.0909 6.25 13.5052C6.25 13.9194 6.58579 14.2552 7 14.2552V12.7552ZM13 14.2552C13.4142 14.2552 13.75 13.9194 13.75 13.5052C13.75 13.0909 13.4142 12.7552 13 12.7552V14.2552ZM12.25 4.50516C12.25 4.91937 12.5858 5.25516 13 5.25516C13.4142 5.25516 13.75 4.91937 13.75 4.50516H12.25ZM13.75 1.50516C13.75 1.09094 13.4142 0.755157 13 0.755157C12.5858 0.755157 12.25 1.09094 12.25 1.50516H13.75ZM6.25 4.50516C6.25 4.91937 6.58579 5.25516 7 5.25516C7.41421 5.25516 7.75 4.91937 7.75 4.50516H6.25ZM7.75 1.50516C7.75 1.09094 7.41421 0.755157 7 0.755157C6.58579 0.755157 6.25 1.09094 6.25 1.50516H7.75ZM18.9711 15.5052L19.7206 15.5308L18.9711 15.5052ZM1.02893 9.50516L0.279368 9.47948L1.02893 9.50516ZM18.9711 9.50516L19.7206 9.47948L18.9711 9.50516ZM10 20.7552C8.10843 20.7552 6.74999 20.7541 5.69804 20.6402C4.66013 20.5277 4.00992 20.3126 3.50191 19.9435L2.62023 21.157C3.42656 21.7428 4.37094 22.0052 5.53648 22.1314C6.68798 22.2562 8.14184 22.2552 10 22.2552V20.7552ZM0.25 12.5052C0.25 14.3633 0.248971 15.8172 0.373728 16.9687C0.500006 18.1342 0.762324 19.0786 1.34815 19.8849L2.56168 19.0032C2.19259 18.4952 1.97745 17.845 1.865 16.8071C1.75103 15.7552 1.75 14.3967 1.75 12.5052H0.25ZM3.50191 19.9435C3.14111 19.6813 2.82382 19.364 2.56168 19.0032L1.34815 19.8849C1.70281 20.3731 2.13209 20.8023 2.62023 21.157L3.50191 19.9435ZM17.4383 19.0032C17.1762 19.364 16.8589 19.6813 16.4981 19.9435L17.3798 21.157C17.8679 20.8023 18.2972 20.3731 18.6518 19.8849L17.4383 19.0032ZM16.4981 5.06684C16.8589 5.32897 17.1762 5.64627 17.4383 6.00707L18.6518 5.12539C18.2972 4.63725 17.8679 4.20797 17.3798 3.85331L16.4981 5.06684ZM2.62023 3.85331C2.13209 4.20797 1.70281 4.63725 1.34815 5.12539L2.56168 6.00707C2.82382 5.64627 3.14111 5.32897 3.50191 5.06684L2.62023 3.85331ZM17.1005 14.8259C14.6401 15.2156 12.7105 17.1453 12.3208 19.6057L13.8023 19.8403C14.0904 18.0218 15.5166 16.5955 17.3352 16.3075L17.1005 14.8259ZM7 14.2552H13V12.7552H7V14.2552ZM18.9711 14.7552C18.0888 14.7552 17.5579 14.7535 17.1005 14.8259L17.3352 16.3075C17.647 16.2581 18.0338 16.2552 18.9711 16.2552L18.9711 14.7552ZM18.25 12.5052C18.25 13.6782 18.2499 14.6507 18.2215 15.4795L19.7206 15.5308C19.7501 14.6709 19.75 13.6699 19.75 12.5052H18.25ZM18.2215 15.4795C18.158 17.3344 17.9509 18.2977 17.4383 19.0032L18.6518 19.8849C19.4537 18.7813 19.6564 17.4043 19.7206 15.5308L18.2215 15.4795ZM13.75 21.4762C13.75 20.539 13.7529 20.1522 13.8023 19.8403L12.3208 19.6057C12.2484 20.063 12.25 20.594 12.25 21.4762L13.75 21.4762ZM10 22.2552C11.1648 22.2552 12.1658 22.2552 13.0257 22.2258L12.9743 20.7267C12.1456 20.7551 11.1731 20.7552 10 20.7552V22.2552ZM13.0257 22.2258C14.8991 22.1616 16.2761 21.9589 17.3798 21.157L16.4981 19.9435C15.7925 20.4561 14.8292 20.6631 12.9743 20.7267L13.0257 22.2258ZM1.75 12.5052C1.75 11.3321 1.75009 10.3596 1.77849 9.53084L0.279368 9.47948C0.249906 10.3394 0.25 11.3404 0.25 12.5052H1.75ZM1.77849 9.53084C1.84204 7.67591 2.04907 6.71262 2.56168 6.00707L1.34815 5.12539C0.546296 6.22905 0.343555 7.60603 0.279368 9.47948L1.77849 9.53084ZM1.02893 10.2552H18.9711V8.75516H1.02893V10.2552ZM19.75 12.5052C19.75 11.3404 19.7501 10.3394 19.7206 9.47948L18.2215 9.53084C18.2499 10.3596 18.25 11.3321 18.25 12.5052H19.75ZM19.7206 9.47948C19.6564 7.60603 19.4537 6.22905 18.6518 5.12539L17.4383 6.00707C17.9509 6.71262 18.158 7.67591 18.2215 9.53084L19.7206 9.47948ZM13.75 4.50516V3.53409H12.25V4.50516H13.75ZM13.75 3.53409V1.50516H12.25V3.53409H13.75ZM10 4.25516C11.1731 4.25516 12.1456 4.25525 12.9743 4.28365L13.0257 2.78453C12.1658 2.75506 11.1648 2.75516 10 2.75516V4.25516ZM12.9743 4.28365C14.8292 4.3472 15.7925 4.55422 16.4981 5.06684L17.3798 3.85331C16.2761 3.05145 14.8991 2.84871 13.0257 2.78453L12.9743 4.28365ZM7.75 4.50516V3.53409H6.25V4.50516H7.75ZM7.75 3.53409V1.50516H6.25V3.53409H7.75ZM10 2.75516C8.83522 2.75516 7.83424 2.75506 6.97432 2.78453L7.02568 4.28365C7.85445 4.25525 8.82692 4.25516 10 4.25516V2.75516ZM6.97432 2.78453C5.10087 2.84871 3.7239 3.05145 2.62023 3.85331L3.50191 5.06684C4.20746 4.55422 5.17075 4.3472 7.02568 4.28365L6.97432 2.78453Z" fill="#2D264B"/>
</svg>
