<svg width="16" height="16" viewBox="0 0 16 16" fill="none" xmlns="http://www.w3.org/2000/svg">
<path d="M8.5 5.33594C8.5 5.0598 8.27614 4.83594 8 4.83594C7.72386 4.83594 7.5 5.0598 7.5 5.33594H8.5ZM10.1 9.33594C10.3761 9.33594 10.6 9.11208 10.6 8.83594C10.6 8.5598 10.3761 8.33594 10.1 8.33594V9.33594ZM1.38765 1.6205C1.17202 1.79301 1.13706 2.10766 1.30957 2.32329C1.48207 2.53892 1.79672 2.57388 2.01235 2.40137L1.38765 1.6205ZM3.76235 1.00137C3.97798 0.828869 4.01294 0.514222 3.84043 0.298591C3.66793 0.0829605 3.35328 0.0479999 3.13765 0.220505L3.76235 1.00137ZM13.9877 2.40137C14.2033 2.57388 14.5179 2.53892 14.6904 2.32329C14.8629 2.10766 14.828 1.79301 14.6123 1.6205L13.9877 2.40137ZM12.8623 0.220505C12.6467 0.0479999 12.3321 0.0829605 12.1596 0.298591C11.9871 0.514222 12.022 0.828869 12.2377 1.00137L12.8623 0.220505ZM8 7.78594H7.5H8ZM7.5 5.33594L7.5 7.78594H8.5L8.5 5.33594H7.5ZM14.5 8.13594C14.5 11.7258 11.5899 14.6359 8 14.6359V15.6359C12.1421 15.6359 15.5 12.2781 15.5 8.13594H14.5ZM8 14.6359C4.41015 14.6359 1.5 11.7258 1.5 8.13594H0.5C0.5 12.2781 3.85786 15.6359 8 15.6359V14.6359ZM1.5 8.13594C1.5 4.54609 4.41015 1.63594 8 1.63594V0.635939C3.85786 0.635939 0.5 3.9938 0.5 8.13594H1.5ZM8 1.63594C11.5899 1.63594 14.5 4.54609 14.5 8.13594H15.5C15.5 3.9938 12.1421 0.635939 8 0.635939V1.63594ZM2.01235 2.40137L3.76235 1.00137L3.13765 0.220505L1.38765 1.6205L2.01235 2.40137ZM14.6123 1.6205L12.8623 0.220505L12.2377 1.00137L13.9877 2.40137L14.6123 1.6205ZM9.05 9.33594H10.1V8.33594H9.05V9.33594ZM7.5 7.78594C7.5 8.64198 8.19396 9.33594 9.05 9.33594V8.33594C8.74624 8.33594 8.5 8.0897 8.5 7.78594H7.5Z" fill="#494949"/>
</svg>
