<svg width="24" height="23" viewBox="0 0 24 23" fill="none" xmlns="http://www.w3.org/2000/svg">
<mask id="mask0_506_179" style="mask-type:alpha" maskUnits="userSpaceOnUse" x="0" y="0" width="24" height="23">
<path fill-rule="evenodd" clip-rule="evenodd" d="M0.3125 0.0936279H23.9838V22.6417H0.3125V0.0936279Z" fill="white"/>
</mask>
<g mask="url(#mask0_506_179)">
<path fill-rule="evenodd" clip-rule="evenodd" d="M2.42121 10.6422C4.04227 15.6858 10.4467 19.7639 12.1487 20.7733C13.8565 19.7535 20.3072 15.6303 21.8763 10.6469C22.9065 7.42555 21.9503 3.34514 18.1508 2.12067C16.3101 1.52983 14.1629 1.88942 12.6806 3.03642C12.3707 3.27461 11.9406 3.27923 11.6284 3.04336C10.0582 1.86283 8.00705 1.51711 6.13739 2.12067C2.34374 3.34398 1.39099 7.42439 2.42121 10.6422ZM12.1499 22.6418C12.0065 22.6418 11.8643 22.6071 11.7348 22.5366C11.3729 22.3389 2.84786 17.6399 0.770081 11.1718C0.768925 11.1718 0.768924 11.1706 0.768924 11.1706C-0.535326 7.09833 0.916925 1.98076 5.60552 0.469546C7.80702 -0.242704 10.2062 0.0706394 12.1464 1.29511C14.0265 0.106483 16.524 -0.221892 18.6815 0.469546C23.3748 1.98308 24.8316 7.09948 23.5285 11.1706C21.5178 17.5647 12.9304 22.3342 12.5661 22.5343C12.4366 22.606 12.2933 22.6418 12.1499 22.6418Z" fill="#FF4E4E"/>
</g>
<path fill-rule="evenodd" clip-rule="evenodd" d="M18.9902 8.91006C18.5428 8.91006 18.1635 8.56666 18.1265 8.11341C18.0502 7.16297 17.4143 6.36053 16.5089 6.068C16.0522 5.92 15.8025 5.43091 15.9493 4.9765C16.0985 4.52094 16.5829 4.2735 17.0408 4.41688C18.6168 4.92678 19.721 6.32238 19.8563 7.97235C19.8944 8.44988 19.5395 8.86844 19.0619 8.9066C19.0376 8.90891 19.0145 8.91006 18.9902 8.91006Z" fill="#FF4E4E"/>
</svg>
