<svg width="18" height="23" viewBox="0 0 18 23" fill="none" xmlns="http://www.w3.org/2000/svg">
<path d="M11.7808 19.7377L11.1906 19.2748L11.7808 19.7377ZM6.21921 19.7377L5.62903 20.2005L6.21921 19.7377ZM9 22.0426V21.2926V22.0426ZM16.25 9.64587C16.25 10.8724 15.6104 12.5135 14.6037 14.2932C13.6137 16.0435 12.3342 17.8165 11.1906 19.2748L12.371 20.2005C13.5371 18.7134 14.8672 16.8741 15.9094 15.0317C16.9349 13.2186 17.75 11.2866 17.75 9.64587H16.25ZM6.80938 19.2748C5.66578 17.8165 4.38628 16.0435 3.39625 14.2932C2.38962 12.5135 1.75 10.8724 1.75 9.64587H0.25C0.25 11.2866 1.06511 13.2186 2.09064 15.0317C3.13277 16.8741 4.46288 18.7134 5.62903 20.2005L6.80938 19.2748ZM1.75 9.64587C1.75 5.25288 5.04678 1.78717 9 1.78717V0.28717C4.11666 0.28717 0.25 4.52994 0.25 9.64587H1.75ZM9 1.78717C12.9532 1.78717 16.25 5.25288 16.25 9.64587H17.75C17.75 4.52994 13.8833 0.28717 9 0.28717V1.78717ZM11.1906 19.2748C10.5717 20.0641 10.1641 20.5797 9.79918 20.9112C9.46635 21.2136 9.24418 21.2926 9 21.2926V22.7926C9.72906 22.7926 10.2948 22.4875 10.8078 22.0215C11.2886 21.5847 11.7849 20.9478 12.371 20.2005L11.1906 19.2748ZM5.62903 20.2005C6.21511 20.9478 6.71136 21.5847 7.19224 22.0215C7.70524 22.4875 8.27094 22.7926 9 22.7926V21.2926C8.75582 21.2926 8.53365 21.2136 8.20082 20.9112C7.83587 20.5797 7.42834 20.0641 6.80938 19.2748L5.62903 20.2005ZM5.25 10.0372C5.25 12.1082 6.92893 13.7872 9 13.7872V12.2872C7.75736 12.2872 6.75 11.2798 6.75 10.0372H5.25ZM9 13.7872C11.0711 13.7872 12.75 12.1082 12.75 10.0372H11.25C11.25 11.2798 10.2426 12.2872 9 12.2872V13.7872ZM12.75 10.0372C12.75 7.9661 11.0711 6.28717 9 6.28717V7.78717C10.2426 7.78717 11.25 8.79453 11.25 10.0372H12.75ZM9 6.28717C6.92893 6.28717 5.25 7.9661 5.25 10.0372H6.75C6.75 8.79453 7.75736 7.78717 9 7.78717V6.28717Z" fill="#2D264B"/>
</svg>
