<svg width="24" height="26" viewBox="0 0 24 26" fill="none" xmlns="http://www.w3.org/2000/svg">
<path d="M6.08167 10.8227C6.08167 10.2705 6.52939 9.82273 7.08167 9.82273H7.33179H8.83179H9.08167C9.63395 9.82273 10.0817 10.2705 10.0817 10.8227V12.8227C10.0817 13.375 9.63395 13.8227 9.08167 13.8227H7.08167C6.52939 13.8227 6.08167 13.375 6.08167 12.8227V10.8227Z" fill="#2D264B"/>
<path d="M6.75261 1.48733C6.56737 1.11684 6.11686 0.966673 5.74638 1.15191C5.37589 1.33716 5.22573 1.78766 5.41097 2.15815L5.46375 2.26372C5.63971 2.61563 5.63971 3.02984 5.46375 3.38175L5.41097 3.48732C5.22573 3.85781 5.37589 4.30831 5.74638 4.49356C6.11686 4.6788 6.56737 4.52863 6.75261 4.15815L6.80539 4.05257C7.1925 3.27837 7.1925 2.3671 6.80539 1.5929L6.75261 1.48733Z" fill="#2D264B"/>
<path d="M14.7526 1.48733C14.5674 1.11684 14.1169 0.966673 13.7464 1.15191C13.3759 1.33716 13.2257 1.78766 13.411 2.15814L13.4638 2.26372C13.6397 2.61563 13.6397 3.02984 13.4638 3.38175L13.411 3.48732C13.2257 3.8578 13.3759 4.30831 13.7464 4.49355C14.1169 4.6788 14.5674 4.52863 14.7526 4.15815L14.8054 4.05258C15.1925 3.27838 15.1925 2.3671 14.8054 1.5929L14.7526 1.48733Z" fill="#2D264B"/>
<path d="M10.7526 2.15815C10.9379 1.78766 10.7877 1.33716 10.4172 1.15192C10.0467 0.966673 9.59621 1.11684 9.41097 1.48732L9.35818 1.5929C8.97108 2.3671 8.97108 3.27837 9.35818 4.05257L9.41097 4.15814C9.59621 4.52863 10.0467 4.6788 10.4172 4.49356C10.7877 4.30831 10.9378 3.85781 10.7526 3.48733L10.6998 3.38175C10.5239 3.02984 10.5239 2.61563 10.6998 2.26372L10.7526 2.15815Z" fill="#2D264B"/>
<path fill-rule="evenodd" clip-rule="evenodd" d="M13.9252 5.34416C13.072 5.07228 12.0061 5.07245 10.2521 5.07272L10.0684 5.07273C9.25532 5.07273 8.59719 5.07273 8.05518 5.09198C7.33531 5.11754 6.75999 5.17793 6.23833 5.34416C4.13982 6.01285 2.60766 7.82151 2.29305 10.0014C2.16514 10.8877 2.34054 11.9391 2.62917 13.6692L3.53011 19.0748C3.639 19.7284 3.70552 20.1277 3.81079 20.4779C4.46453 22.6529 6.33723 24.2393 8.59009 24.5266C8.95282 24.5728 9.35757 24.5728 10.0201 24.5727H10.1434C10.8059 24.5728 11.2108 24.5728 11.5735 24.5266C13.8263 24.2393 15.699 22.6529 16.3528 20.4779C16.458 20.1277 16.5246 19.7284 16.6334 19.0749L16.72 18.5555C16.8392 18.5669 16.9599 18.5727 17.0818 18.5727C19.1529 18.5727 20.8318 16.8938 20.8318 14.8227C20.8318 13.03 19.5738 11.5311 17.8925 11.1606C17.9245 10.7381 17.9225 10.3616 17.8705 10.0014C17.5559 7.82151 16.0238 6.01285 13.9252 5.34416ZM10.0818 6.57273C12.0593 6.57273 12.8689 6.58188 13.4698 6.77335C15.0209 7.2676 16.1534 8.60444 16.3859 10.2157C16.4363 10.565 16.42 10.9984 16.3224 11.7225C16.2557 12.2166 16.1558 12.8166 16.0268 13.5906L15.164 18.7675C15.0418 19.5005 14.9906 19.7989 14.9163 20.0461C14.4331 21.6537 13.0489 22.8263 11.3837 23.0386C11.1277 23.0712 10.8249 23.0727 10.0818 23.0727C9.33864 23.0727 9.03589 23.0712 8.77983 23.0386C7.11467 22.8263 5.7305 21.6537 5.2473 20.0461C5.173 19.7989 5.12176 19.5005 4.99959 18.7675L4.13678 13.5906C3.81168 11.64 3.68759 10.8398 3.77767 10.2157C4.01021 8.60444 5.14267 7.2676 6.69374 6.77335C6.87018 6.71713 7.07287 6.67511 7.33179 6.64462L7.33179 9.82273H7.5C7.5 9.82273 7.58579 9.82273 8 9.82273C8.41421 9.82273 8.5 9.82273 8.5 9.82273H8.83179L8.83179 6.57626C9.19301 6.57277 9.60472 6.57273 10.0818 6.57273ZM17.0818 17.0727C17.0435 17.0727 17.0054 17.0718 16.9676 17.0699L17.5083 13.8258C17.5802 13.3945 17.6446 13.0076 17.6998 12.6587C18.6419 12.9272 19.3318 13.7944 19.3318 14.8227C19.3318 16.0654 18.3244 17.0727 17.0818 17.0727Z" fill="#2D264B"/>
</svg>
