<svg width="20" height="25" viewBox="0 0 20 25" fill="none" xmlns="http://www.w3.org/2000/svg">
<path d="M9 8.50516V12.0052C9 12.8336 9.67158 13.5052 10.5 13.5052V13.5052H12M19 14.5052V10.5052M14.8818 5.41918C14.3859 3.17991 12.3886 1.50516 10.0001 1.50516H8.00008C5.61164 1.50516 3.61434 3.17985 3.11837 5.41905M14.8818 5.41918C14.6878 5.28232 14.4834 5.15888 14.27 5.05012C13.2004 4.50516 11.8003 4.50516 9 4.50516C6.19974 4.50516 4.79961 4.50516 3.73005 5.05012C3.51668 5.15884 3.31236 5.28224 3.11837 5.41905M14.8818 5.41918C15.5431 5.8856 16.0844 6.50783 16.455 7.2352C17 8.30476 17 9.7049 17 12.5052C17 15.3054 17 16.7056 16.455 17.7751C16.0844 18.5026 15.543 19.1249 14.8815 19.5913M3.11837 5.41905C2.45698 5.88548 1.91562 6.50776 1.54497 7.2352C1 8.30476 1 9.7049 1 12.5052C1 15.3054 1 16.7056 1.54497 17.7751C1.91556 18.5024 2.45682 19.1247 3.11808 19.5911M3.11808 19.5911C3.61398 21.8304 5.61132 23.5052 7.99984 23.5052H9.99984C12.3882 23.5052 14.3855 21.8305 14.8815 19.5913M3.11808 19.5911C3.31216 19.728 3.51658 19.8514 3.73005 19.9602C4.79961 20.5052 6.19974 20.5052 9 20.5052C11.8003 20.5052 13.2004 20.5052 14.27 19.9602C14.4833 19.8515 14.6876 19.7281 14.8815 19.5913" stroke="#2D264B" stroke-width="1.5" stroke-linecap="round"/>
</svg>
