<svg width="1727" height="298" viewBox="0 0 1727 298" fill="none" xmlns="http://www.w3.org/2000/svg">
<g filter="url(#filter0_d_15_6)">
<path fill-rule="evenodd" clip-rule="evenodd" d="M137 99C137 93.4772 141.477 89 147 89H1579C1584.52 89 1589 93.4772 1589 99V125C1589 127.762 1586.72 129.933 1584.06 130.65C1575.96 132.826 1570 140.217 1570 149C1570 157.783 1575.96 165.175 1584.06 167.35C1586.72 168.067 1589 170.239 1589 173V199C1589 204.523 1584.52 209 1579 209H147C141.477 209 137 204.523 137 199V173C137 170.239 139.277 168.067 141.944 167.35C150.04 165.175 156 157.783 156 149C156 140.217 150.04 132.826 141.944 130.65C139.277 129.933 137 127.762 137 125V99Z" fill="white"/>
</g>
<defs>
<filter id="filter0_d_15_6" x="87" y="55" width="1552" height="220" filterUnits="userSpaceOnUse" color-interpolation-filters="sRGB">
<feFlood flood-opacity="0" result="BackgroundImageFix"/>
<feColorMatrix in="SourceAlpha" type="matrix" values="0 0 0 0 0 0 0 0 0 0 0 0 0 0 0 0 0 0 127 0" result="hardAlpha"/>
<feOffset dy="16"/>
<feGaussianBlur stdDeviation="25"/>
<feComposite in2="hardAlpha" operator="out"/>
<feColorMatrix type="matrix" values="0 0 0 0 0 0 0 0 0 0 0 0 0 0 0 0 0 0 0.1 0"/>
<feBlend mode="normal" in2="BackgroundImageFix" result="effect1_dropShadow_15_6"/>
<feBlend mode="normal" in="SourceGraphic" in2="effect1_dropShadow_15_6" result="shape"/>
</filter>
</defs>
</svg>
