<svg width="74" height="74" viewBox="0 0 74 74" fill="none" xmlns="http://www.w3.org/2000/svg">
<circle cx="36.9999" cy="37" r="32" fill="#8D56C3"/>
<path fill-rule="evenodd" clip-rule="evenodd" d="M15.9995 50H23.8546C26.4399 50 28.6356 49.4904 30.442 48.4713C30.7725 48.2833 31.0886 48.0806 31.3902 47.8632C32.5151 48.2574 33.7627 48.4546 35.1329 48.4546C36.6102 48.4546 37.9407 48.2273 39.1244 47.7727C40.3081 47.3087 41.3024 46.6648 42.1074 45.8409C42.9123 45.0076 43.4852 44.0417 43.8261 42.9432L40.5875 42.0341C40.3034 42.7917 39.9009 43.4262 39.3801 43.9375C38.8593 44.4394 38.239 44.8182 37.5193 45.0739C36.8091 45.3201 36.0136 45.4432 35.1329 45.4432C34.6799 45.4432 34.2454 45.4103 33.8294 45.3446C34.0997 44.9446 34.346 44.5202 34.5684 44.0714C35.3916 42.4034 35.8561 40.4553 35.9619 38.2273H44.167V36.8068C44.167 34.7708 43.8971 33.0568 43.3574 31.6648C42.8176 30.2727 42.0932 29.1553 41.1841 28.3125C40.275 27.4602 39.2664 26.8447 38.1585 26.4659C37.0505 26.0871 35.9284 25.8977 34.792 25.8977C33.5041 25.8977 32.3214 26.1042 31.244 26.5172C31.0176 26.3611 30.7834 26.2135 30.5414 26.0742C28.7848 25.0551 26.6719 24.5455 24.2026 24.5455H15.9995V50ZM28.493 28.2132C27.25 27.591 25.7536 27.2798 24.0038 27.2798H19.0819V47.2656H23.6558C25.5938 47.2656 27.2263 46.9213 28.5531 46.2328C27.5777 45.401 26.788 44.3708 26.1841 43.1421C25.3697 41.4565 24.9625 39.4962 24.9625 37.2614C24.9625 35.0265 25.3697 33.0568 26.1841 31.3523C26.7833 30.1055 27.553 29.0592 28.493 28.2132ZM31.013 44.1964C31.3914 43.7113 31.7148 43.1724 31.9832 42.5799C32.5503 41.3282 32.8807 39.8773 32.9745 38.2273H28.3222C28.3702 39.6789 28.6518 40.9241 29.167 41.9631C29.6358 42.8853 30.2511 43.6297 31.013 44.1964ZM28.3307 35.3296C28.3946 34.3175 28.6496 33.361 29.096 32.4602C29.5458 31.5524 30.1616 30.7929 30.9434 30.1818C31.3557 30.6952 31.7064 31.2732 31.9956 31.9159C32.451 32.9222 32.7519 34.0601 32.8983 35.3296H28.3307ZM35.8988 35.3296C35.724 33.4879 35.2847 31.857 34.5808 30.4368C34.3259 29.9201 34.0405 29.4362 33.7247 28.9853C34.0667 28.9345 34.4224 28.9091 34.792 28.9091C36.0041 28.9091 37.0553 29.1885 37.9454 29.7472C38.845 30.3059 39.5363 31.0682 40.0193 32.0341C40.5117 33 40.7579 34.0985 40.7579 35.3296H35.8988Z" fill="white"/>
<path d="M48.3039 27.1818L54.3763 44.9517H54.6213L60.6938 27.1818H64.252L56.4004 49H52.5972L44.7456 27.1818H48.3039Z" fill="white"/>
<circle cx="36.9999" cy="37" r="36.5" stroke="#BEBEBE"/>
</svg>
